<?xml version="1.0" encoding="utf-8"?>
<!-- Generator: Adobe Illustrator 21.0.2, SVG Export Plug-In . SVG Version: 6.00 Build 0)  -->
<svg version="1.1" xmlns="http://www.w3.org/2000/svg" xmlns:xlink="http://www.w3.org/1999/xlink" x="0px" y="0px"
	 viewBox="0 0 48.2 99.2" style="enable-background:new 0 0 48.2 99.2;" xml:space="preserve">
<style type="text/css">
	.st0{opacity:0.23;}
	.st1{fill:none;stroke:#808285;stroke-width:2;stroke-miterlimit:10;}
	.st2{fill:none;stroke:#808285;stroke-width:2;stroke-miterlimit:10;stroke-dasharray:3.9903,3.9903;}
	.st3{opacity:0.23;fill:none;stroke:#000000;stroke-width:5;stroke-miterlimit:10;}
	.st4{fill:none;stroke:#000000;stroke-width:4;stroke-linecap:round;stroke-linejoin:round;stroke-miterlimit:10;}
	.st5{fill:none;stroke:#D34127;stroke-width:5;stroke-linecap:round;stroke-linejoin:round;stroke-miterlimit:10;}
	.st6{fill:none;stroke:#D34127;stroke-width:0.25;stroke-linecap:round;stroke-linejoin:round;stroke-miterlimit:10;}
	.st7{fill:none;stroke:#D34127;stroke-width:0.25;stroke-miterlimit:10;}
	.st8{fill:none;stroke:#D34127;stroke-width:5;stroke-miterlimit:10;}
	.st9{fill:none;stroke:#F6F6F7;stroke-width:5;stroke-miterlimit:10;}
	.st10{fill:#D34127;}
</style>
<g id="Layer_2">
	<g class="st0">
		<g>
			<line class="st2" x1="-80.7" y1="53.5" x2="1178.2" y2="53.5"/>
		</g>
	</g>
	<line class="st3" x1="-92.8" y1="39.3" x2="1179.6" y2="39.3"/>
	<line class="st3" x1="-96.5" y1="67.7" x2="1182.2" y2="67.7"/>
</g>
<g id="Layer_1">
	<path class="st5" d="M10.9,38.3c0,0,22-31.8,12.3-33.6S9.7,38.9,10.6,54.2c1,15.2-0.1,13.7,5.2,13.3c5.4-0.4,21.4,0.8,21.9-14.2
		s-9.4-13.8-13.8-13.9c-7.9-0.2-13.5,8.1-13.5,8.1L11.4,68c0,0,8.4-0.9,12.1-0.9"/>
</g>
<g id="Layer_3">
	<path class="st5" d="M10.9,38.3c-5.6,11-6.7,29.3-18.7,29.3"/>
	<path class="st5" d="M64.3,43.3c-7.8,5.1-10.1,23.8-40.8,23.8"/>
</g>
</svg>
