<?xml version="1.0" encoding="utf-8"?>
<!-- Generator: Adobe Illustrator 21.0.2, SVG Export Plug-In . SVG Version: 6.00 Build 0)  -->
<svg version="1.1" xmlns="http://www.w3.org/2000/svg" xmlns:xlink="http://www.w3.org/1999/xlink" x="0px" y="0px"
	 viewBox="0 0 48.2 99.2" style="enable-background:new 0 0 48.2 99.2;" xml:space="preserve">
<style type="text/css">
	.st0{opacity:0.23;}
	.st1{fill:none;stroke:#808285;stroke-width:2;stroke-miterlimit:10;}
	.st2{fill:none;stroke:#808285;stroke-width:2;stroke-miterlimit:10;stroke-dasharray:3.9903,3.9903;}
	.st3{opacity:0.23;fill:none;stroke:#000000;stroke-width:5;stroke-miterlimit:10;}
	.st4{fill:none;stroke:#000000;stroke-width:4;stroke-linecap:round;stroke-linejoin:round;stroke-miterlimit:10;}
	.st5{fill:none;stroke:#D34127;stroke-width:5;stroke-linecap:round;stroke-linejoin:round;stroke-miterlimit:10;}
	.st6{fill:none;stroke:#D34127;stroke-width:0.25;stroke-linecap:round;stroke-linejoin:round;stroke-miterlimit:10;}
	.st7{fill:none;stroke:#D34127;stroke-width:0.25;stroke-miterlimit:10;}
	.st8{fill:none;stroke:#D34127;stroke-width:5;stroke-miterlimit:10;}
	.st9{fill:none;stroke:#F6F6F7;stroke-width:5;stroke-miterlimit:10;}
	.st10{fill:#D34127;}
</style>
<g id="Layer_2">
	<g class="st0">
		<g>
			<line class="st2" x1="-321.6" y1="53.5" x2="937.3" y2="53.5"/>
		</g>
	</g>
	<line class="st3" x1="-333.8" y1="39.3" x2="938.6" y2="39.3"/>
	<line class="st3" x1="-337.4" y1="67.7" x2="941.3" y2="67.7"/>
</g>
<g id="Layer_1">
	<path class="st5" d="M11.4,46.4c0,0,6.6-8.4,20.6-7.2c0,0-15.4-3.2-23.2,11.1c-7.4,13.5,10.5,20.6,19.8,8.4l4-19.2
		c-2.9,16.4-8.3,39.4-11.3,46.7s-8.4,11.4-12,8.5c-4-3.2,3-20.6,31.9-31.7"/>
</g>
<g id="Layer_3">
	<path class="st5" d="M11.4,46.4C0,57.8-15.7,54-24.1,62.4"/>
	<path class="st5" d="M41.2,62.9c11.7-3.8,19.2-14.2,23.3-19.1"/>
</g>
</svg>
