<?xml version="1.0" encoding="utf-8"?>
<!-- Generator: Adobe Illustrator 21.0.2, SVG Export Plug-In . SVG Version: 6.00 Build 0)  -->
<svg version="1.1" xmlns="http://www.w3.org/2000/svg" xmlns:xlink="http://www.w3.org/1999/xlink" x="0px" y="0px"
	 viewBox="0 0 48.2 99.2" style="enable-background:new 0 0 48.2 99.2;" xml:space="preserve">
<style type="text/css">
	.st0{opacity:0.23;}
	.st1{fill:none;stroke:#808285;stroke-width:2;stroke-miterlimit:10;}
	.st2{fill:none;stroke:#808285;stroke-width:2;stroke-miterlimit:10;stroke-dasharray:3.9903,3.9903;}
	.st3{opacity:0.23;fill:none;stroke:#000000;stroke-width:5;stroke-miterlimit:10;}
	.st4{fill:none;stroke:#000000;stroke-width:4;stroke-linecap:round;stroke-linejoin:round;stroke-miterlimit:10;}
	.st5{fill:none;stroke:#D34127;stroke-width:5;stroke-linecap:round;stroke-linejoin:round;stroke-miterlimit:10;}
	.st6{fill:none;stroke:#D34127;stroke-width:0.25;stroke-linecap:round;stroke-linejoin:round;stroke-miterlimit:10;}
	.st7{fill:none;stroke:#D34127;stroke-width:0.25;stroke-miterlimit:10;}
	.st8{fill:none;stroke:#D34127;stroke-width:5;stroke-miterlimit:10;}
	.st9{fill:none;stroke:#F6F6F7;stroke-width:5;stroke-miterlimit:10;}
	.st10{fill:#D34127;}
</style>
<g id="Layer_2">
	<g class="st0">
		<g>
			<line class="st2" x1="-370.1" y1="53.5" x2="888.8" y2="53.5"/>
		</g>
	</g>
	<line class="st3" x1="-382.3" y1="39.3" x2="890.1" y2="39.3"/>
	<line class="st3" x1="-385.9" y1="67.7" x2="892.8" y2="67.7"/>
</g>
<g id="Layer_1">
	<path class="st5" d="M16,43.8c0,0,9.1-14.5,12.1-19.6s6.8-14.7,3.8-19c-3-4.3-8.8,7.6-10.6,13.8s-10,48.8-10,48.8
		S15.8,38.8,30,42.1c14.2,3.3-8.5,25.3,6.9,25.4"/>
</g>
<g id="Layer_3">
	<path class="st5" d="M-7.3,62.9C4.3,59.1,11.8,48.7,16,43.8"/>
	<path class="st5" d="M36.9,67.5c10.9,0,30.6-22.9,33.4-28.1"/>
</g>
</svg>
