<?xml version="1.0" encoding="utf-8"?>
<!-- Generator: Adobe Illustrator 21.0.2, SVG Export Plug-In . SVG Version: 6.00 Build 0)  -->
<svg version="1.1" xmlns="http://www.w3.org/2000/svg" xmlns:xlink="http://www.w3.org/1999/xlink" x="0px" y="0px"
	 viewBox="0 0 42.5 99.2" style="enable-background:new 0 0 42.5 99.2;" xml:space="preserve">
<style type="text/css">
	.st0{display:none;}
	.st1{display:inline;opacity:0.23;}
	.st2{fill:none;stroke:#808285;stroke-width:2;stroke-miterlimit:10;}
	.st3{fill:none;stroke:#808285;stroke-width:2;stroke-miterlimit:10;stroke-dasharray:3.9903,3.9903;}
	.st4{display:inline;opacity:0.23;fill:none;stroke:#000000;stroke-width:5;stroke-miterlimit:10;}
	.st5{fill:none;stroke:#000000;stroke-width:4;stroke-linecap:round;stroke-linejoin:round;stroke-miterlimit:10;}
	.st6{fill:none;stroke:#D34127;stroke-width:5;stroke-linecap:round;stroke-linejoin:round;stroke-miterlimit:10;}
	.st7{fill:none;stroke:#D34127;stroke-width:0.25;stroke-linecap:round;stroke-linejoin:round;stroke-miterlimit:10;}
	.st8{fill:none;stroke:#D34127;stroke-width:0.25;stroke-miterlimit:10;}
	.st9{fill:none;stroke:#F6F6F7;stroke-width:5;stroke-miterlimit:10;}
	.st10{fill:#D34127;}
</style>
<g id="Layer_2" class="st0">
	<g class="st1">
		<g>
			<line class="st3" x1="-455.2" y1="53.5" x2="803.8" y2="53.5"/>
		</g>
	</g>
	<line class="st4" x1="-467.3" y1="39.3" x2="805.1" y2="39.3"/>
	<line class="st4" x1="-470.9" y1="67.7" x2="807.8" y2="67.7"/>
</g>
<g id="Layer_1">
	<path class="st6" d="M29,38.9c-0.8,4.4-5.1,51.2-16.5,42.6C2.7,74,27.1,62.2,32.3,59.7"/>
</g>
<g id="Layer_3">
	<path class="st6" d="M-15.3,67.7c20.3,0,43-21.6,44.3-28.8"/>
	<g>
		<g>
			<path class="st10" d="M31.4,30.7c3.2,0,3.2-5,0-5C28.2,25.7,28.2,30.7,31.4,30.7L31.4,30.7z"/>
		</g>
	</g>
	<path class="st6" d="M32.3,59.7c8.5-4.4,21.5-10.4,21.5-10.4"/>
</g>
</svg>
