<?xml version="1.0" encoding="utf-8"?>
<!-- Generator: Adobe Illustrator 21.0.2, SVG Export Plug-In . SVG Version: 6.00 Build 0)  -->
<svg version="1.1" xmlns="http://www.w3.org/2000/svg" xmlns:xlink="http://www.w3.org/1999/xlink" x="0px" y="0px"
	 viewBox="0 0 48.2 99.2" style="enable-background:new 0 0 48.2 99.2;" xml:space="preserve">
<style type="text/css">
	.st0{display:none;}
	.st1{display:inline;opacity:0.23;}
	.st2{fill:none;stroke:#808285;stroke-width:2;stroke-miterlimit:10;}
	.st3{fill:none;stroke:#808285;stroke-width:2;stroke-miterlimit:10;stroke-dasharray:3.9903,3.9903;}
	.st4{display:inline;opacity:0.23;fill:none;stroke:#000000;stroke-width:5;stroke-miterlimit:10;}
	.st5{fill:none;stroke:#000000;stroke-width:4;stroke-linecap:round;stroke-linejoin:round;stroke-miterlimit:10;}
	.st6{fill:none;stroke:#D34127;stroke-width:5;stroke-linecap:round;stroke-linejoin:round;stroke-miterlimit:10;}
	.st7{fill:none;stroke:#D34127;stroke-width:0.25;stroke-linecap:round;stroke-linejoin:round;stroke-miterlimit:10;}
	.st8{fill:none;stroke:#D34127;stroke-width:0.25;stroke-miterlimit:10;}
	.st9{fill:none;stroke:#F6F6F7;stroke-width:5;stroke-miterlimit:10;}
	.st10{fill:#D34127;}
</style>
<g id="Layer_2" class="st0">
	<g class="st1">
		<g>
			<line class="st3" x1="-497.7" y1="53.5" x2="761.2" y2="53.5"/>
		</g>
	</g>
	<line class="st4" x1="-509.8" y1="39.3" x2="762.6" y2="39.3"/>
	<line class="st4" x1="-513.5" y1="67.7" x2="765.2" y2="67.7"/>
</g>
<g id="Layer_1">
	<path class="st6" d="M11.3,49.3c5.4-6.8,20.7-18.3,21-32s-9.2-6.7-11.1-2.5s-15.9,56-15.9,56s3.5-26.5,15.4-28.9s13.6,1.6,13.9,4.8
		s-8,6.6-14.5,6.5s-7.8-2.4-7.8-2.4S18.2,67.7,31,67.7"/>
</g>
<g id="Layer_3">
	<path class="st6" d="M-10.2,59.7c8.5-4.4,21.5-10.4,21.5-10.4"/>
	<path class="st6" d="M31,67.7c17.2,0,43-58.5,43-58.5"/>
</g>
</svg>
