<?xml version="1.0" encoding="utf-8"?>
<!-- Generator: Adobe Illustrator 21.0.2, SVG Export Plug-In . SVG Version: 6.00 Build 0)  -->
<svg version="1.1" xmlns="http://www.w3.org/2000/svg" xmlns:xlink="http://www.w3.org/1999/xlink" x="0px" y="0px"
	 viewBox="0 0 48.2 99.2" style="enable-background:new 0 0 48.2 99.2;" xml:space="preserve">
<style type="text/css">
	.st0{display:none;}
	.st1{display:inline;opacity:0.23;}
	.st2{fill:none;stroke:#808285;stroke-width:2;stroke-miterlimit:10;}
	.st3{fill:none;stroke:#808285;stroke-width:2;stroke-miterlimit:10;stroke-dasharray:3.9903,3.9903;}
	.st4{display:inline;opacity:0.23;fill:none;stroke:#000000;stroke-width:5;stroke-miterlimit:10;}
	.st5{fill:none;stroke:#000000;stroke-width:4;stroke-linecap:round;stroke-linejoin:round;stroke-miterlimit:10;}
	.st6{fill:none;stroke:#D34127;stroke-width:5;stroke-linecap:round;stroke-linejoin:round;stroke-miterlimit:10;}
	.st7{fill:none;stroke:#D34127;stroke-width:0.25;stroke-linecap:round;stroke-linejoin:round;stroke-miterlimit:10;}
	.st8{fill:none;stroke:#D34127;stroke-width:0.25;stroke-miterlimit:10;}
	.st9{fill:none;stroke:#F6F6F7;stroke-width:5;stroke-miterlimit:10;}
	.st10{fill:#D34127;}
</style>
<g id="Layer_2" class="st0">
	<g class="st1">
		<g>
			<line class="st3" x1="-755.6" y1="53.5" x2="503.3" y2="53.5"/>
		</g>
	</g>
	<line class="st4" x1="-767.8" y1="39.3" x2="504.6" y2="39.3"/>
	<line class="st4" x1="-771.4" y1="67.7" x2="507.3" y2="67.7"/>
</g>
<g id="Layer_1">
	<path class="st6" d="M14.7,40.7l-4.4,54.1c0,0,1.5-55.4,16.2-55.6c15-0.1,9.2,19.4,4.9,24c-3.6,3.8-9,5.1-12.4,4.4
		c-3.9-0.9-5.4-3.7-5.4-3.7c1.5,4.2,6.3,3.9,7.8,3.9"/>
</g>
<g id="Layer_3">
	<path class="st6" d="M14.7,40.7c-1.2,15-21.7-1.3-36.9-1.3"/>
	<path class="st6" d="M21.4,67.7c14.6,0,26.8-28.2,64.3-28.2"/>
</g>
</svg>
