<?xml version="1.0" encoding="utf-8"?>
<!-- Generator: Adobe Illustrator 21.0.2, SVG Export Plug-In . SVG Version: 6.00 Build 0)  -->
<svg version="1.1" xmlns="http://www.w3.org/2000/svg" xmlns:xlink="http://www.w3.org/1999/xlink" x="0px" y="0px"
	 viewBox="0 0 48.2 99.2" style="enable-background:new 0 0 48.2 99.2;" xml:space="preserve">
<style type="text/css">
	.st0{display:none;}
	.st1{display:inline;opacity:0.23;}
	.st2{fill:none;stroke:#808285;stroke-width:2;stroke-miterlimit:10;}
	.st3{fill:none;stroke:#808285;stroke-width:2;stroke-miterlimit:10;stroke-dasharray:3.9903,3.9903;}
	.st4{display:inline;opacity:0.23;fill:none;stroke:#000000;stroke-width:5;stroke-miterlimit:10;}
	.st5{fill:none;stroke:#000000;stroke-width:4;stroke-linecap:round;stroke-linejoin:round;stroke-miterlimit:10;}
	.st6{fill:none;stroke:#D34127;stroke-width:5;stroke-linecap:round;stroke-linejoin:round;stroke-miterlimit:10;}
	.st7{fill:none;stroke:#D34127;stroke-width:0.25;stroke-linecap:round;stroke-linejoin:round;stroke-miterlimit:10;}
	.st8{fill:none;stroke:#D34127;stroke-width:0.25;stroke-miterlimit:10;}
	.st9{fill:none;stroke:#F6F6F7;stroke-width:5;stroke-miterlimit:10;}
	.st10{fill:#D34127;}
</style>
<g id="Layer_2" class="st0">
	<g class="st1">
		<g>
			<line class="st3" x1="-900.2" y1="53.5" x2="358.7" y2="53.5"/>
		</g>
	</g>
	<line class="st4" x1="-912.4" y1="39.3" x2="360.1" y2="39.3"/>
	<line class="st4" x1="-916" y1="67.7" x2="362.7" y2="67.7"/>
</g>
<g id="Layer_1">
	<path class="st6" d="M26.9,41.5c0,0,8.1,10.7,4.5,18s-7.1,8.1-11,8.1c-4.7,0-12.6-6.3-13.5-10.7c1.1,4.4,8.7,10.7,13.1,10.7
		c12.9,0,19.8-6.6,20.6-7.5"/>
</g>
<g id="Layer_3">
	<path class="st6" d="M-14.1,50.9c0,11.3,16.1,15.6,41-9.3"/>
	<path class="st6" d="M40.5,60.1C53.2,47.5,74,21.3,79.3,9.4"/>
</g>
</svg>
