<?xml version="1.0" encoding="utf-8"?>
<!-- Generator: Adobe Illustrator 21.0.2, SVG Export Plug-In . SVG Version: 6.00 Build 0)  -->
<svg version="1.1" xmlns="http://www.w3.org/2000/svg" xmlns:xlink="http://www.w3.org/1999/xlink" x="0px" y="0px"
	 viewBox="0 0 48.2 99.2" style="enable-background:new 0 0 48.2 99.2;" xml:space="preserve">
<style type="text/css">
	.st0{display:none;}
	.st1{display:inline;opacity:0.23;}
	.st2{fill:none;stroke:#808285;stroke-width:2;stroke-miterlimit:10;}
	.st3{fill:none;stroke:#808285;stroke-width:2;stroke-miterlimit:10;stroke-dasharray:3.9903,3.9903;}
	.st4{display:inline;opacity:0.23;fill:none;stroke:#000000;stroke-width:5;stroke-miterlimit:10;}
	.st5{fill:none;stroke:#000000;stroke-width:4;stroke-linecap:round;stroke-linejoin:round;stroke-miterlimit:10;}
	.st6{fill:none;stroke:#D34127;stroke-width:5;stroke-linecap:round;stroke-linejoin:round;stroke-miterlimit:10;}
	.st7{fill:none;stroke:#D34127;stroke-width:0.25;stroke-linecap:round;stroke-linejoin:round;stroke-miterlimit:10;}
	.st8{fill:none;stroke:#D34127;stroke-width:0.25;stroke-miterlimit:10;}
	.st9{fill:none;stroke:#F6F6F7;stroke-width:5;stroke-miterlimit:10;}
	.st10{fill:#D34127;}
</style>
<g id="Layer_2" class="st0">
	<g class="st1">
		<g>
			<line class="st3" x1="-1206.5" y1="53.5" x2="52.4" y2="53.5"/>
		</g>
	</g>
	<line class="st4" x1="-1218.7" y1="39.3" x2="53.7" y2="39.3"/>
	<line class="st4" x1="-1222.3" y1="67.7" x2="56.4" y2="67.7"/>
</g>
<g id="Layer_1">
	<path class="st6" d="M13.7,40.4c6.7,0,4.2,7.8,2.8,10.8c-1.3,3.1-5.2,15.7,5.4,15.7s18.3-24.8,18.6-27.5
		c0.3-2.7-8.4,59.8-28.5,56.5C4.7,94.7,29.5,77.9,39.3,68"/>
</g>
<g id="Layer_3">
	<path class="st6" d="M-13.6,67.7c8.3,0,12.5-27.2,27.2-27.2"/>
	<path class="st6" d="M39.3,68c6.7-5.2,17-28.7,34.2-28.7"/>
</g>
</svg>
